<svg 
          width="34.116275787353516" 
          height="54.58481979370117" fill="none" 
          xmlns="http://www.w3.org/2000/svg">
          <path d="M 22.169170300438697 10.233154470104724 C 24.993947296330294 10.233154470104724 27.285747500544232 7.94135425023752 27.285747500544232 5.116577235052362 C 27.285747500544232 2.291800219867204 24.993947296330294 0 22.169170300438697 0 C 19.3443933045471 0 17.052593100333162 2.291800219867204 17.052593100333162 5.116577235052362 C 17.052593100333162 7.94135425023752 19.3443933045471 10.233154470104724 22.169170300438697 10.233154470104724 Z M 32.24243166314647 26.12652315709256 L 29.758761115141446 24.86869759483897 L 28.724784838073916 21.73479306245974 C 27.157833090873048 16.980640210875197 22.787423704088003 13.65486549620483 17.830739541485766 13.644205960139631 C 13.993306641406615 13.633546424074433 11.872058034619874 14.720818720715776 7.8853914702193695 16.3304086832389 C 5.5829316895089764 17.25778828676069 3.696193968958767 19.01661140633817 2.587602282932137 21.25511394667358 L 1.8734135040727788 22.704811480544855 C 1.0419696887241783 24.38901817408104 1.7135203649122253 26.43564838699837 3.3870674704486263 27.277751733766465 C 5.0499551011458275 28.11985508053456 7.0752670620068185 27.43764609390618 7.917370403023247 25.753439400369995 L 8.631558978568092 24.30374186649872 C 9.004642732742454 23.55757435305358 9.622895831419992 22.971300538975996 10.390382391104371 22.662173987525858 L 13.247138319799845 21.510943784335858 L 11.626888385144934 27.981281754192604 C 11.072592542131618 30.19846514138949 11.669526691130754 32.55422139747068 13.215159386995968 34.24908756591887 L 19.600221513945943 41.220426651103466 C 20.36770807363032 42.06252999787156 20.911345407548364 43.07518392665918 21.18849332905502 44.17311614534562 L 23.139188711898473 51.986557916526145 C 23.597548773072713 53.80933859717645 25.452306645903747 54.928588545799826 27.275087314104244 54.470228481494935 C 29.09786798230474 54.011868417190044 30.217121176315686 52.15711053169079 29.758761115141446 50.334329851040486 L 27.392342858879765 40.8473428943809 C 27.115194937373108 39.74941067569446 26.571559229971154 38.726093968134016 25.804072670286775 37.89465014710655 L 20.953983866020067 32.59685950043321 L 22.787423704088003 25.273760284583833 L 23.373698174933427 27.032583709133085 C 23.9386535944432 28.7487690307198 25.153840333833596 30.166487275768382 26.752770708866574 30.976611994485946 L 29.236441256871597 32.23443593022344 C 30.8993288875688 33.07653927699153 32.92464064511528 32.39433029036316 33.76674398613171 30.710123596826968 C 34.587528224983856 29.03657647986004 33.91597876868287 26.968626503860655 32.24243166314647 26.12652315709256 Z M 7.842753164233548 41.12448822552048 C 7.501648012476982 41.98791067459847 6.9899906025210585 42.7660567652655 6.329099401172211 43.41628844538768 L 0.9993314843956123 48.75671658508002 C -0.3331104947985375 50.08915857337491 -0.3331104947985375 52.25304631418512 0.9993314843956123 53.58548830248001 C 2.3317734635897622 54.9179302907749 4.48499937666429 54.9179302907749 5.81744135585844 53.58548830248001 L 12.149205803640648 47.25372137167695 C 12.799437479321668 46.60348969155478 13.311095702535635 45.825343600887734 13.662860379960028 44.96192115180975 L 15.101897717489711 41.358999316673255 C 9.207174482860598 34.93129924646453 10.976657166921564 36.90331196593937 10.049277569733887 35.63482723374555 L 7.842753164233548 41.12448822552048 Z" fill="rgb(0,0,0)"/>
        </svg>